<svg xmlns="http://www.w3.org/2000/svg" width="32" height="32"><defs><linearGradient id="a" x1="50%" x2="50%" y1="38.706%" y2="100%"><stop offset="0%" stop-color="#EB2E20"/><stop offset="100%" stop-color="#D51A20"/></linearGradient><linearGradient id="b" x1="50%" x2="50%" y1="0%" y2="100%"><stop offset="0%" stop-color="#65CDEB"/><stop offset="58.422%" stop-color="#0D3B7A"/><stop offset="100%" stop-color="#051730"/></linearGradient><linearGradient id="c" x1="54.578%" x2="47.215%" y1="26.869%" y2="76.287%"><stop offset="0%" stop-color="#98DDF7"/><stop offset="100%" stop-color="#173E70"/></linearGradient><linearGradient id="d" x1="50%" x2="50%" y1="49.971%" y2="100%"><stop offset="0%" stop-color="#FFF"/><stop offset="100%" stop-color="#D9E5E9"/></linearGradient></defs><g fill="none" fill-rule="evenodd"><path fill="url(#a)" d="M18.946 6.757c-1.205.471-2.209 1.144-3.026 2.02-.819.879-1.444 1.932-1.873 3.17-.431 1.239-.648 2.585-.648 4.045.002 3.106.875 5.518 2.608 7.3 1.732 1.778 4.15 2.676 7.33 2.679 1.355 0 2.55-.175 3.584-.516 1.89-.666 4.02-2.553 4.382-4.332.032-.159.046-.301.047-.428 0-.8-.576-.995-.908-1.04a2.225 2.225 0 00-.23-.014c-.437 0-.785.142-1.006.343-.266.245-1.039.97-1.437 1.319-.405.354-.846.684-1.324.993-.49.316-.999.55-1.525.7a6.304 6.304 0 01-1.73.223 5.012 5.012 0 01-2.611-.706c-.796-.471-1.431-1.177-1.899-2.091-.436-.846-.67-1.812-.715-2.881a.72.72 0 010-.025c0-.342.267-.546.575-.546h9.552c1.289.001 2.265-.187 2.927-.53l.01-.005.003-.001.002-.001.005-.003a.891.891 0 00.014-.007.044.044 0 01.003-.002l.004-.002.003-.002a.079.079 0 00.007-.004l.003-.002.003-.002.004-.002.004-.002.002-.001.005-.003.002-.001.005-.003.001-.001.004-.003.003-.001.004-.003.003-.001.004-.003.002-.001a.103.103 0 00.004-.003l.003-.001.004-.003.002-.002.004-.002.003-.002.004-.002.002-.002.004-.003.002-.001.005-.003.002-.001.005-.004h.001a.166.166 0 01.005-.004h.001l.005-.004.002-.001.005-.004h.001l.005-.004.001-.001.005-.003.002-.002.004-.003.002-.001.004-.003.002-.002c.002 0 .003-.002.005-.003l.001-.001.005-.004h.001a.161.161 0 01.005-.004l.002-.001.004-.004.002-.001.004-.004h.002l.005-.005.006-.005.005-.004.002-.001.005-.004v-.001l.006-.004v-.001a.108.108 0 00.006-.004l.005-.005.002-.001.004-.004h.001l.005-.005h.001l.005-.005.001-.001.005-.004v-.001a.26.26 0 00.006-.005l.006-.005.006-.005.017-.016c.387-.366.602-.989.609-1.96v-.116l-.001-.01v-.045l-.001-.012v-.033c-.033-1.246-.368-2.468-1.014-3.683-.675-1.265-1.685-2.296-3.052-3.103-1.355-.799-2.985-1.203-4.91-1.204-1.481 0-2.82.238-4.023.708m7.25 3.584c.833.887 1.302 2.179 1.45 3.838v.029c0 .265-.282.49-.57.49h-8.518c-.288-.002-.575-.217-.575-.493 0-.02.001-.042.005-.063.196-1.62.688-2.894 1.51-3.781.856-.926 1.984-1.398 3.305-1.395 1.376-.003 2.534.458 3.392 1.375"/><path fill="url(#b)" d="M14.945.944h-.024a.58.58 0 01-.023.001h-.057l-.014.001h-.011a.47.47 0 01-.012 0h-.023l-.02.001h-.003l-.022.001h-.002C6.964 1.133.652 7.203.081 14.876l-.002.024-.002.024-.001.023v.001l-.002.023v.001l-.001.023v.001l-.002.023v.001l-.002.023v.001l-.001.022v.003l-.001.02v.004l-.002.02a.04.04 0 000 .004l-.001.022v.001l-.002.022v.023l-.001.004-.001.019v.005l-.001.02v.004l-.002.019v.025l-.001.004v.019l-.001.006-.001.018v.006l-.001.017v.007l-.001.017v.023l-.001.008v.017l-.001.007v.017l-.001.007v.018l-.001.006v.025l-.001.016v.008l-.001.015v.025l-.001.008v.025l-.001.014v.034l-.001.013v.035l-.001.014v.035l-.001.014a.665.665 0 000 .024v.035l-.001.015v.072l-.001.01v.097c0 8.322 6.742 15.067 15.06 15.067 8.318 0 15.06-6.745 15.06-15.067V15.831l-.001-.014v-.06l-.001-.012v-.049l-.001-.01v-.023l-.001-.015v-.033l-.001-.016v-.024l-.001-.007v-.024l-.001-.017v-.008l-.001-.016v-.024l-.001-.01v-.015l-.001-.007v-.017l-.001-.007v-.024l-.002-.017a.09.09 0 010-.005v-.024l-.002-.02v-.024l-.001-.005v-.019l-.001-.005-.001-.019v-.005l-.001-.019v-.005l-.001-.019v-.004l-.002-.02v-.004l-.001-.02v-.004l-.001-.02v-.004l-.002-.02v-.004l-.001-.02v-.003l-.002-.021v-.003l-.001-.021v-.004l-.002-.02v-.003l-.001-.021v-.003l-.002-.021v-.002l-.002-.022v-.003l-.001-.021v-.002l-.002-.022v-.002l-.004-.047c-.582-7.661-6.89-13.72-14.651-13.904h-.027l-.02-.001h-.023a.41.41 0 01-.011 0h-.013l-.013-.001h-.033l-.02-.001H14.945z"/><path fill="url(#c)" d="M1.16 14.594a13.913 13.913 0 00.795 6.269c2.666-6.19 9.371-6.337 14.506-4.527 5.77 1.19 12.304 1.013 12.31-2.774 0-.264-.03-.546-.097-.847-1.151-5.322-5.877-10.01-12.159-10.65-.48-.048-.955-.073-1.427-.073-7.095 0-13.197 5.392-13.929 12.602"/><path fill="url(#d)" d="M18.946 6.757c-.486.19-.94.413-1.362.67a7.782 7.782 0 00-1.665 1.351 8.24 8.24 0 00-.543.646 9.05 9.05 0 00-1.329 2.523c-.431 1.239-.648 2.585-.648 4.045.002 3.106.875 5.518 2.608 7.3 1.732 1.778 4.15 2.676 7.33 2.679 1.307 0 2.461-.164 3.468-.48a15.026 15.026 0 002.896-5.776.337.337 0 01-.01.003l-.008.003h-.002a.135.135 0 00-.012.004h-.001a1.39 1.39 0 00-.532.324l-.012.012c-.319.294-.993.925-1.355 1.242-.405.354-.846.684-1.324.993a5.593 5.593 0 01-1.526.7 5.08 5.08 0 01-.257.066 6.539 6.539 0 01-1.472.157h-.161c-.784 0-1.663-.236-2.454-.706-.792-.471-1.427-1.177-1.88-2.057a6.252 6.252 0 01-.132-.274c-.361-.788-.558-1.672-.598-2.641v-.004c-.01-.355.26-.567.418-.567h9.722c.706 0 1.317-.057 1.835-.165a6.07 6.07 0 00.201-.045l.001-.024a15.003 15.003 0 00-3.107-9.913c-1.124-.491-2.409-.75-3.868-.772L23 6.049h-.004c-1.51 0-2.846.238-4.049.708m3.884 2.206c1.349 0 2.507.461 3.365 1.378.834.887 1.303 2.179 1.45 3.838l.002.014c.01.271-.278.506-.571.506h-8.518c-.299-.003-.597-.235-.574-.525 0-.011.002-.022.004-.032.183-1.515.625-2.726 1.354-3.602a4.162 4.162 0 011.814-1.295c.34-.126.701-.21 1.08-.25.194-.021.391-.032.594-.032"/></g></svg>